<?xml version="1.0" encoding="UTF-8"?> <!-- Generator: Adobe Illustrator 24.0.1, SVG Export Plug-In . SVG Version: 6.00 Build 0) --> <svg xmlns="http://www.w3.org/2000/svg" xmlns:xlink="http://www.w3.org/1999/xlink" version="1.1" id="Layer_1" x="0px" y="0px" viewBox="0 0 1200 250" style="enable-background:new 0 0 1200 250;" xml:space="preserve"> <style type="text/css"> .st0{fill:#33318E;} .st1{fill:#FC9D32;} </style> <g> <path class="st0" d="M598.2,73.5h49.6V203h29.5V73.5h49.6V46.7c-45.3,0-83.5,0-128.6,0V73.5z"></path> <path class="st0" d="M744.2,203h117v-29h-87.7v-35.3h84.6v-27.5h-84.6V75.3h87.7V46.7h-117C744.2,98.7,744.2,151,744.2,203z"></path> <path class="st0" d="M962.4,178.9c-38.6,0-53.6-27-53.8-52.9c-0.2-26.1,16.1-54.3,53.8-54.3c13.6,0,27.5,4.7,37.7,14.7l19.6-19 c-16.1-15.9-36.2-23.9-57.4-23.9c-56.5,0-83.1,41.5-82.8,82.4c0.2,40.6,24.8,80.6,82.8,80.6c22.6,0,43.3-7.4,59.4-23.2l-20.1-20.3 C991.4,173.3,976,178.9,962.4,178.9z"></path> <polygon class="st0" points="1144.8,46.9 1144.8,112.8 1068,112.8 1068,46.9 1038.5,46.9 1038.5,203.2 1068,203.2 1068,140 1144.8,140 1144.8,203.2 1174,203.2 1174,46.9 "></polygon> <path class="st0" d="M246.6,46.7h32.3l41.8,56.1L396.5,1.9l-44.9,29.6H26v15c55.6,0.1,73.7,0.2,91.7,0.2 c36.8,0.2,56.3,24.8,56.3,51.8c0,21.4-9.8,43.1-39.5,49.1l47.3,53.4v2h-35.1l-45.5-52.2H72.9V203H43.4v-78.8h74.3 c18.8,0,26.8-12.5,26.8-25s-8.3-25-26.8-25H43.4H26v149.1h204.4l74-98.9L246.6,46.7z M223.3,203h-29.2V46.7h29.2V203z"></path> <path class="st1" d="M481.9,179.5c36.8,0,50.7-27.7,51.1-53.4c0.4-26.3-14.3-55.8-51.1-55.8c-36.8,0-52,29.7-51.3,56 C431.2,152.1,445,179.5,481.9,179.5z"></path> <path class="st1" d="M336.8,124.4l58.6,78.6H363l-42.5-57l-57,76.2l-20.2,26.4l39.3-25.3h294V31.5H406.3L336.8,124.4z M481.9,43.6 c53.8,0,80.6,41.3,80.2,82.2c-0.4,40.4-25.2,80.8-80.2,80.8S401.5,167,401.5,126C401.5,84.9,427.8,43.6,481.9,43.6z"></path> </g> </svg> 